# xmcd
#
# Track frame offsets:
#	150
#	11870
#	25302
#	37010
#	49317
#	61652
#	74715
#	88187
#	101007
#	111687
#	123082
#	134735
#	147672
#	157525
#	168615
#	178895
#	192407
#	205935
#
# Disc length: 2906 seconds
#
# Revision: 2
# Processed by: cddbd v1.4PL0 Copyright (c) Steve Scherf et al.
# Submitted via: audiograbber 1.80
#
DISCID=1a0b5812
DTITLE=Various Artist - Are You From Dixie? (Great Country Brother Teams of the 1930's
DTITLE=)
DYEAR=1988
DGENRE=Old timey
TTITLE0=The Allen Brothers - Jake Walk Blues
TTITLE1=The Allen Brothers - Roll Down the Line
TTITLE2=The Allen Brothers - A New Salty Dog
TTITLE3=The Lone Star Cowboys - Deep Elm Blues
TTITLE4=The Lone Star Cowboys - Crawdad Song
TTITLE5=The Lone Star Cowboys - Just Because
TTITLE6=The Delmore Brothers - I've Got the Big River Blues
TTITLE7=The Delmore Brothers - Blow Yo' Whistle, Freight Train
TTITLE8=The Delmore Brothers - The Nashville Blues
TTITLE9=The Dixon Brothers - Weave Room Blues
TTITLE10=The Dixon Brothers - The Intoxicated Rat
TTITLE11=The Dixon Brothers - Down with the Old Canoe
TTITLE12=The Monroe Brothers - Nine Pound Hammer Is Too Heavy
TTITLE13=The Monroe Brothers - Roll in My Sweet Baby's Arms
TTITLE14=The Monroe Brothers - Have a Feast Here Tonight
TTITLE15=The Blue Sky Boys - I'm Just Here to Get My Baby Out of Jail
TTITLE16=The Blue Sky Boys - Katie Dear
TTITLE17=The Blue Sky Boys - Are You from Dixie?
EXTD=
EXTT0=
EXTT1=
EXTT2=
EXTT3=
EXTT4=
EXTT5=
EXTT6=
EXTT7=
EXTT8=
EXTT9=
EXTT10=
EXTT11=
EXTT12=
EXTT13=
EXTT14=
EXTT15=
EXTT16=
EXTT17=
PLAYORDER=
